<?xml version="1.0" encoding="UTF-8" standalone="no"?>
<svg
   version="1.0"
   width="13.789636pt"
   height="527.73462pt"
   viewBox="0 0 13.789636 527.73463"
   preserveAspectRatio="xMidYMid"
   id="svg1"
   sodipodi:docname="timeline.svg"
   inkscape:version="1.3 (0e150ed, 2023-07-21)"
   xmlns:inkscape="http://www.inkscape.org/namespaces/inkscape"
   xmlns:sodipodi="http://sodipodi.sourceforge.net/DTD/sodipodi-0.dtd"
   xmlns="http://www.w3.org/2000/svg"
   xmlns:svg="http://www.w3.org/2000/svg">
  <defs
     id="defs1" />
  <sodipodi:namedview
     id="namedview1"
     pagecolor="#505050"
     bordercolor="#eeeeee"
     borderopacity="1"
     inkscape:showpageshadow="0"
     inkscape:pageopacity="0"
     inkscape:pagecheckerboard="0"
     inkscape:deskcolor="#d1d1d1"
     inkscape:document-units="pt"
     inkscape:zoom="3.1536193"
     inkscape:cx="25.843322"
     inkscape:cy="520.83014"
     inkscape:window-width="1440"
     inkscape:window-height="847"
     inkscape:window-x="0"
     inkscape:window-y="25"
     inkscape:window-maximized="1"
     inkscape:current-layer="g1" />
  <g
     transform="matrix(0.1,0,0,-0.1,0,549.88779)"
     fill="#000000"
     stroke="none"
     id="g1"
     style="fill:#000000;fill-opacity:1">
    <path
       d="m 76.740068,5482 c -11,-18 -15,-19 -34,-6 -51.0000004,33 -58,-51 -9,-96 l 24,-23 15.627349,-15.8302 L 107.74007,5386 c 38,47 40,107 3,112 -14.000002,2 -27.000002,-4 -34.000002,-16 z"
       id="path1"
       style="fill:#ffffff;fill-opacity:1;stroke:#000000;stroke-opacity:0.166052"
       sodipodi:nodetypes="cccccccc" />
    <path
       d="m 76.740064,4843.1221 c -11,-18 -15,-19 -34,-6 -51.0000004,33 -57.99999,-51.0001 -9,-96.0001 l 24,-23 15.62735,-15.8302 34.372646,44.8302 c 38.00001,47.0001 40.00001,107.0001 3,112.0001 -14,2 -26.999996,-4 -33.999996,-16 z"
       id="path1-9-4"
       style="fill:#ffffff;fill-opacity:1;stroke:#000000;stroke-opacity:0.166052"
       sodipodi:nodetypes="cccccccc" />
    <path
       d="m 76.740064,4203.1221 c -11,-18 -15,-19 -34,-6 -51.0000011,33 -57.99999,-51.0001 -9,-96.0001 l 24,-23 15.62735,-15.8302 34.372646,44.8302 c 38.00001,47.0001 40.00001,107.0001 3,112.0001 -14,2 -26.999996,-4 -33.999996,-16 z"
       id="path1-9-4-5"
       style="fill:#ffffff;fill-opacity:1;stroke:#000000;stroke-opacity:0.166052"
       sodipodi:nodetypes="cccccccc" />
    <path
       d="m 76.740064,3563.1221 c -11,-18 -15,-19 -34,-6 -51.0000011,33 -57.99999,-51.0001 -9,-96.0001 l 24,-23 15.62735,-15.8302 34.372646,44.8302 c 38.00001,47.0001 40.00001,107.0001 3,112.0001 -14,2 -26.999996,-4 -33.999996,-16 z"
       id="path1-9-4-5-9"
       style="fill:#ffffff;fill-opacity:1;stroke:#000000;stroke-opacity:0.166052"
       sodipodi:nodetypes="cccccccc" />
    <path
       d="m 76.740064,2923.1221 c -11,-18 -15,-19 -34,-6 -51.0000004,33 -57.99999,-51.0001 -9,-96.0001 l 24,-23 15.62735,-15.8302 34.372646,44.8302 c 38.00001,47.0001 40.00001,107.0001 3,112.0001 -13.999996,2 -26.999996,-4 -33.999996,-16 z"
       id="path1-9-4-5-9-9"
       style="fill:#ffffff;fill-opacity:1;stroke:#000000;stroke-opacity:0.166052"
       sodipodi:nodetypes="cccccccc" />
    <path
       d="m 76.740064,2283.1221 c -11,-18 -15,-19 -34,-6 -51.0000004,33 -57.99999,-51.0001 -9,-96.0001 l 24,-23 15.62735,-15.8302 34.372646,44.8302 c 38.00001,47.0001 40.00001,107.0001 3,112.0001 -13.999996,2 -26.999996,-4 -33.999996,-16 z"
       id="path1-9-4-5-9-9-5"
       style="fill:#ffffff;fill-opacity:1;stroke:#000000;stroke-opacity:0.166052"
       sodipodi:nodetypes="cccccccc" />
    <path
       d="m 76.740064,1003.1221 c -11,-18.00002 -15,-19.00002 -34,-6.00002 -51.0000004,33.00002 -57.99999,-51.0001 -9,-96.0001 l 24,-23 15.62735,-15.8302 34.372646,44.8302 c 38.00001,47.0001 40.00001,107.00012 3,112.00012 -13.999996,2 -26.999996,-4 -33.999996,-16 z"
       id="path1-9-4-5-9-9-5-3"
       style="fill:#ffffff;fill-opacity:1;stroke:#000000;stroke-opacity:0.166052"
       sodipodi:nodetypes="cccccccc" />
    <path
       d="m 76.740064,1643.1221 c -11,-18 -15,-19 -34,-6 -51.0000004,33 -57.99999,-51.0001 -9,-96.0001 l 24,-23 15.62735,-15.8302 34.372646,44.8302 c 38.00001,47.0001 40.00001,107.0001 3,112.0001 -13.999996,2 -26.999996,-4 -33.999996,-16 z"
       id="path1-9-4-5-9-9-5-3-5"
       style="fill:#ffffff;fill-opacity:1;stroke:#000000;stroke-opacity:0.166052"
       sodipodi:nodetypes="cccccccc" />
    <path
       d="m 76.740064,363.12208 c -11,-18 -15,-19 -34,-6 -51.0000004,33 -57.99999,-51.0001 -9,-96.0001 l 24,-23 15.62735,-15.8302 34.372646,44.8302 c 38.00001,47.0001 40.00001,107.0001 3,112.0001 -13.999996,2 -26.999996,-4 -33.999996,-16 z"
       id="path1-9-4-5-9-9-5-3-5-5"
       style="fill:#ffffff;fill-opacity:1;stroke:#000000;stroke-opacity:0.166052"
       sodipodi:nodetypes="cccccccc" />
    <path
       style="fill:none;stroke:#ffffff;stroke-width:16.5;stroke-linecap:round;stroke-linejoin:miter;stroke-opacity:1;stroke-dasharray:16.5,49.5;stroke-dashoffset:0"
       d="M 71.346595,4711.6871 V 4174.2094"
       id="path6" />
    <path
       style="fill:none;fill-opacity:1;stroke:#ffffff;stroke-width:16.5;stroke-linecap:round;stroke-linejoin:miter;stroke-dasharray:none;stroke-dashoffset:0;stroke-opacity:1"
       d="M 71.35,5362.6115 V 4825.1338"
       id="path6-7" />
    <path
       style="fill:none;fill-opacity:1;stroke:#ffffff;stroke-width:16.5;stroke-linecap:round;stroke-linejoin:miter;stroke-dasharray:none;stroke-dashoffset:0;stroke-opacity:1"
       d="M 71.35,4111.3335 V 1617.9663"
       id="path6-7-6" />
    <path
       style="fill:none;fill-opacity:1;stroke:#ffffff;stroke-width:16.5;stroke-linecap:round;stroke-linejoin:miter;stroke-dasharray:16.5, 49.5;stroke-dashoffset:0;stroke-opacity:1"
       d="M 71.35,1508.128 V 970.6503"
       id="path6-3" />
    <path
       style="fill:none;fill-opacity:1;stroke:#ffffff;stroke-width:16.5;stroke-linecap:round;stroke-linejoin:miter;stroke-dasharray:none;stroke-dashoffset:0;stroke-opacity:1"
       d="M 71.35,878.128 V 340.6503"
       id="path6-7-64" />
  </g>
</svg>
